<mxfile host="app.diagrams.net" modified="2023-10-25T23:14:46.602Z" agent="Mozilla/5.0 (Windows NT 10.0; Win64; x64) AppleWebKit/537.36 (KHTML, like Gecko) Chrome/118.0.0.0 Safari/537.36" version="22.0.8" etag="ZxGqH4DxUITmE-dgPVD0" type="github">
  <diagram name="第 1 页" id="y5jETXpf-k1WF732A3_M">
    <mxGraphModel>
      <root>
        <mxCell id="0" />
        <mxCell id="1" parent="0" />
      </root>
    </mxGraphModel>
  </diagram>
</mxfile>
